# xmcd
#
# Track frame offsets:
#	150
#	14551
#	28809
#	44697
#	60205
#	73804
#	90437
#	105166
#	119943
#	133062
#	148915
#	162945
#	180016
#
# Disc length: 2610 seconds
#
# Revision: 0
# Processed by: cddbd v1.5.1PL2 Copyright (c) Steve Scherf et al.
# Submitted via: dBpowerAMP V4.0
#
DISCID=b40a300d
DTITLE=Toca Do Vale - O Quentchê do Forró
DYEAR=1900
DGENRE=
TTITLE0=Nesse Chove e Não Molha
TTITLE1=Você Não Tá Com Nada
TTITLE2=De Rapariga eu Entendo
TTITLE3=Jura
TTITLE4=O Clone de Lágrimas
TTITLE5=Ninguém é de Ferro
TTITLE6=Chave de Cadeado
TTITLE7=Forró Da Carolina
TTITLE8=Não Me Diga Não
TTITLE9=Toque, Toque, Toque, Toque
TTITLE10=Leão Domado
TTITLE11=O Brinco
TTITLE12=Quando a Mulher Não Vale Nada
EXTD=
EXTT0=
EXTT1=
EXTT2=
EXTT3=
EXTT4=
EXTT5=
EXTT6=
EXTT7=
EXTT8=
EXTT9=
EXTT10=
EXTT11=
EXTT12=
PLAYORDER=
